<?xml version="1.0" encoding="utf-8"?>
<svg version="1.1" xmlns="http://www.w3.org/2000/svg" xmlns:xlink="http://www.w3.org/1999/xlink" x="0px" y="0px" width="205.367px"
	 height="30.001px" viewBox="3.495 46.332 205.367 30.001">
<g fill="black">
	<polygon points="109.85,50.105 109.354,48.744 109.632,46.332 103.473,51.436 103.559,51.574 	"/>
	<path d="M18.058,73.976c-1.013,1.068-2.606,1.697-4.169,1.752c-4.856-0.025-6.032-4.277-6.032-9.352
		c0-5.073,1.099-9.353,5.949-9.353c1.483,0,2.881,0.604,3.925,1.697l2.687,4.251h0.247v-6.276h-0.247l-2.47,1.287
		c-0.632-0.547-2.222-1.562-4.142-1.562c-4.719,0-10.311,3.617-10.311,9.954c0,6.338,5.488,9.957,10.394,9.957
		c1.919,0,3.675-1.043,4.389-1.646l2.442,1.371h0.247v-6.555H20.72L18.058,73.976L18.058,73.976z"/>
	<path d="M36.111,56.42c-4.609,0-10.066,3.896-10.066,9.956c0,6.061,5.458,9.957,10.066,9.957c4.604,0,10.063-3.896,10.063-9.957
		C46.175,60.316,40.715,56.42,36.111,56.42L36.111,56.42z M36.111,75.7c-4.637,0-5.76-3.977-5.76-9.324
		c0-5.347,1.124-9.325,5.76-9.325c4.63,0,5.756,3.979,5.756,9.325C41.868,71.724,40.742,75.7,36.111,75.7L36.111,75.7z"/>
	<polygon points="63.559,57.271 65.943,57.271 65.943,69.312 65.891,69.312 57.333,56.777 49.602,56.777 49.602,57.271 
		51.985,57.271 51.985,75.481 49.602,75.481 49.602,75.976 55.056,75.976 55.056,75.481 52.671,75.481 52.671,57.271 52.727,57.271 
		66.493,76.333 66.63,76.333 66.63,57.271 69.017,57.271 69.017,56.777 63.559,56.777 	"/>
	<path d="M81.849,56.773H73.21v0.494h2.466v18.21H73.21v0.494h8.639c4.142,0,11.384-1.838,11.384-9.709
		C93.233,58.393,85.991,56.773,81.849,56.773L81.849,56.773z M81.687,75.479h-2.115V57.27h2.115c4.991,0,7.295,3.676,7.295,9.104
		C88.982,71.802,86.678,75.479,81.687,75.479L81.687,75.479z"/>
	<path d="M110.268,75.479h-7.268v-9.57h3.646c1.209,0.955,2.524,3.729,2.524,3.729h0.25v-7.952h-0.25c0,0-1.315,2.769-2.524,3.729
		h-3.646V57.27h6.502c1.891,1.232,3.455,4.659,3.455,4.659h0.248v-5.153H96.638v0.494h2.467v18.21h-2.467v0.494h17.114v-6.445
		h-0.244C113.509,69.528,111.942,73.644,110.268,75.479L110.268,75.479z"/>
	<polygon points="139.821,57.271 142.204,57.271 142.204,69.312 142.153,69.312 133.594,56.777 125.86,56.777 125.86,57.271 
		128.245,57.271 128.245,75.481 125.86,75.481 125.86,75.976 131.317,75.976 131.317,75.481 128.932,75.481 128.932,57.271 
		128.985,57.271 142.757,76.333 142.891,76.333 142.891,57.271 145.276,57.271 145.276,56.777 139.821,56.777 	"/>
	<path d="M157.716,56.113h-0.223l-8.227,19.362h-2.277v0.494h5.184v-0.494h-2.223l2.938-6.965h6.254l3.18,6.965h-2.496v0.494h9.025
		v-0.494h-2.305L157.716,56.113L157.716,56.113z M153.104,68.017l2.799-6.661l3.02,6.661H153.104L153.104,68.017z"/>
	<path d="M182.319,64.704l-3.785-1.293c-1.893-0.633-3.428-1.562-3.428-3.372c0-1.893,1.645-3.043,4.17-3.043
		c1.562,0,2.441,0.357,3.428,1.316l2.688,4.224h0.221v-6.089h-0.221l-2.496,1.26c-0.658-0.545-1.756-1.26-3.619-1.26
		c-3.65,0-6.062,2.383-6.09,5.731c0.027,2.717,1.92,4.113,4.088,4.91l3.865,1.396c2.029,0.742,3.43,1.621,3.43,3.648
		c0,1.729-1.262,3.619-4.605,3.646c-1.512-0.055-3.32-0.602-4.391-1.645l-2.826-4.717h-0.246l0.137,6.637h0.248l2.469-1.342
		c0.797,0.627,2.688,1.617,4.609,1.617c4.195,0,6.938-2.963,6.938-6.199C186.928,66.952,184.71,65.499,182.319,64.704
		L182.319,64.704z"/>
	<path d="M191.034,56.773v5.948h0.219c0,0,1.729-3.618,3.4-5.454h3.35v18.21h-3.018v0.494h9.93v-0.494h-3.018V57.27h3.344
		c1.672,1.834,3.404,5.454,3.404,5.454h0.217v-5.948h-17.828V56.773z"/>
</g>
</svg>
